<?xml version="1.0" encoding="UTF-8" ?>
<svg version="1.1" width="15" height="15" xmlns="http://www.w3.org/2000/svg" shape-rendering="crispEdges">
<rect x="10" y="1" width="4" height="1" fill="#fff" />
<rect x="5" y="2" width="6" height="1" fill="#fff" />
<rect x="13" y="2" width="1" height="3" fill="#fff" />
<rect x="4" y="3" width="1" height="1" fill="#fff" />
<rect x="10" y="3" width="2" height="2" fill="#fff" />
<rect x="3" y="4" width="1" height="1" fill="#fff" />
<rect x="5" y="4" width="2" height="1" fill="#fff" />
<rect x="12" y="4" width="1" height="6" fill="#fff" />
<rect x="2" y="5" width="1" height="5" fill="#fff" />
<rect x="4" y="5" width="1" height="1" fill="#fff" />
<rect x="10" y="5" width="1" height="3" fill="#fff" />
<rect x="7" y="6" width="1" height="1" fill="#fff" />
<rect x="6" y="7" width="1" height="1" fill="#fff" />
<rect x="8" y="7" width="1" height="1" fill="#fff" />
<rect x="7" y="8" width="1" height="1" fill="#fff" />
<rect x="10" y="9" width="1" height="1" fill="#fff" />
<rect x="3" y="10" width="1" height="1" fill="#fff" />
<rect x="8" y="10" width="2" height="1" fill="#fff" />
<rect x="11" y="10" width="1" height="1" fill="#fff" />
<rect x="4" y="11" width="1" height="1" fill="#fff" />
<rect x="10" y="11" width="1" height="1" fill="#fff" />
<rect x="5" y="12" width="5" height="1" fill="#fff" />
</svg>
