<?xml version="1.0" standalone="no"?>
<!DOCTYPE svg PUBLIC "-//W3C//DTD SVG 20010904//EN"
 "http://www.w3.org/TR/2001/REC-SVG-20010904/DTD/svg10.dtd">
<svg version="1.0" xmlns="http://www.w3.org/2000/svg"
 width="186.000000pt" height="186.000000pt" viewBox="0 0 186.000000 186.000000"
 preserveAspectRatio="xMidYMid meet">
<metadata>
Created by potrace 1.16, written by Peter Selinger 2001-2019
</metadata><g><rect x="0" y="0" width="186" height="186" fill="#ffffff" />
<g transform="translate(0.000000,186.000000) scale(0.050000,-0.050000)" stroke="none">
<path d="M360 2940 l0 -420 420 0 420 0 0 420 0 420 -420 0 -420 0 0 -420z
m720 0 l0 -300 -300 0 -300 0 0 300 0 300 300 0 300 0 0 -300z"/>
<path d="M600 2940 l0 -180 180 0 180 0 0 180 0 180 -180 0 -180 0 0 -180z"/>
<path d="M1560 3300 l0 -60 -60 0 -60 0 0 -60 0 -60 -60 0 -60 0 0 -60 0 -60
60 0 60 0 0 -120 0 -120 60 0 60 0 0 -120 0 -120 60 0 60 0 0 -60 0 -60 60 0
60 0 0 -60 0 -60 -60 0 -60 0 0 -60 0 -60 -60 0 -60 0 0 60 0 60 -60 0 -60 0
0 180 0 180 -60 0 -60 0 0 -120 0 -120 -240 0 -240 0 0 -120 0 -120 60 0 60 0
0 -60 0 -60 -60 0 -60 0 0 -60 0 -60 60 0 60 0 0 -60 0 -60 120 0 120 0 0 -60
0 -60 -60 0 -60 0 0 -60 0 -60 120 0 120 0 0 -60 0 -60 -180 0 -180 0 0 -60 0
-60 180 0 180 0 0 -240 0 -240 60 0 60 0 0 -60 0 -60 -60 0 -60 0 0 -180 0
-180 180 0 180 0 0 60 0 60 60 0 60 0 0 -60 0 -60 60 0 60 0 0 60 0 60 -60 0
-60 0 0 60 0 60 -120 0 -120 0 0 -60 0 -60 -60 0 -60 0 0 120 0 120 180 0 180
0 0 120 0 120 120 0 120 0 0 -120 0 -120 -60 0 -60 0 0 -60 0 -60 60 0 60 0 0
60 0 60 60 0 60 0 0 -60 0 -60 60 0 60 0 0 -60 0 -60 -60 0 -60 0 0 -60 0 -60
120 0 120 0 0 60 0 60 60 0 60 0 0 180 0 180 60 0 60 0 0 -60 0 -60 60 0 60 0
0 -120 0 -120 -60 0 -60 0 0 -60 0 -60 60 0 60 0 0 60 0 60 120 0 120 0 0 60
0 60 -60 0 -60 0 0 60 0 60 120 0 120 0 0 60 0 60 120 0 120 0 0 60 0 60 -60
0 -60 0 0 60 0 60 60 0 60 0 0 120 0 120 -120 0 -120 0 0 -240 0 -240 -60 0
-60 0 0 300 0 300 -60 0 -60 0 0 60 0 60 -60 0 -60 0 0 60 0 60 -60 0 -60 0 0
60 0 60 60 0 60 0 0 180 0 180 -60 0 -60 0 0 120 0 120 -120 0 -120 0 0 120 0
120 -60 0 -60 0 0 60 0 60 60 0 60 0 0 60 0 60 -120 0 -120 0 0 60 0 60 60 0
60 0 0 180 0 180 -180 0 -180 0 0 -60 0 -60 60 0 60 0 0 -240 0 -240 -60 0
-60 0 0 120 0 120 -60 0 -60 0 0 60 0 60 -60 0 -60 0 0 -60 0 -60 60 0 60 0 0
-120 0 -120 -120 0 -120 0 0 120 0 120 -60 0 -60 0 0 60 0 60 60 0 60 0 0 60
0 60 60 0 60 0 0 60 0 60 -60 0 -60 0 0 -60z m240 -720 l0 -60 60 0 60 0 0 60
0 60 60 0 60 0 0 -60 0 -60 -60 0 -60 0 0 -60 0 -60 -60 0 -60 0 0 60 0 60
-60 0 -60 0 0 60 0 60 60 0 60 0 0 -60z m480 -60 l0 -120 -60 0 -60 0 0 -60 0
-60 60 0 60 0 0 -60 0 -60 60 0 60 0 0 -120 0 -120 -60 0 -60 0 0 -120 0 -120
60 0 60 0 0 -60 0 -60 60 0 60 0 0 60 0 60 60 0 60 0 0 -60 0 -60 60 0 60 0 0
-60 0 -60 -60 0 -60 0 0 60 0 60 -60 0 -60 0 0 -60 0 -60 -60 0 -60 0 0 60 0
60 -120 0 -120 0 0 -180 0 -180 -60 0 -60 0 0 -60 0 -60 -60 0 -60 0 0 60 0
60 60 0 60 0 0 60 0 60 -60 0 -60 0 0 60 0 60 -60 0 -60 0 0 -60 0 -60 -60 0
-60 0 0 -60 0 -60 -120 0 -120 0 0 60 0 60 120 0 120 0 0 60 0 60 60 0 60 0 0
60 0 60 -120 0 -120 0 0 60 0 60 -120 0 -120 0 0 60 0 60 -60 0 -60 0 0 60 0
60 -120 0 -120 0 0 60 0 60 180 0 180 0 0 60 0 60 -180 0 -180 0 0 60 0 60
240 0 240 0 0 -60 0 -60 60 0 60 0 0 -60 0 -60 -60 0 -60 0 0 -60 0 -60 60 0
60 0 0 -120 0 -120 120 0 120 0 0 120 0 120 -60 0 -60 0 0 60 0 60 60 0 60 0
0 -60 0 -60 120 0 120 0 0 60 0 60 -60 0 -60 0 0 60 0 60 120 0 120 0 0 60 0
60 -60 0 -60 0 0 60 0 60 60 0 60 0 0 120 0 120 60 0 60 0 0 -120z m360 -420
l0 -60 -60 0 -60 0 0 60 0 60 60 0 60 0 0 -60z m120 -960 l0 -180 -180 0 -180
0 0 180 0 180 180 0 180 0 0 -180z m-1200 -180 l0 -120 -60 0 -60 0 0 120 0
120 60 0 60 0 0 -120z m240 60 l0 -60 -60 0 -60 0 0 60 0 60 60 0 60 0 0 -60z
m480 -120 l0 -180 -60 0 -60 0 0 180 0 180 60 0 60 0 0 -180z"/>
<path d="M2160 1980 l0 -60 -60 0 -60 0 0 -60 0 -60 60 0 60 0 0 60 0 60 60 0
60 0 0 60 0 60 -60 0 -60 0 0 -60z"/>
<path d="M1320 1860 l0 -60 60 0 60 0 0 60 0 60 -60 0 -60 0 0 -60z"/>
<path d="M1920 1620 l0 -60 60 0 60 0 0 60 0 60 -60 0 -60 0 0 -60z"/>
<path d="M2520 1140 l0 -60 60 0 60 0 0 60 0 60 -60 0 -60 0 0 -60z"/>
<path d="M2520 2940 l0 -420 420 0 420 0 0 420 0 420 -420 0 -420 0 0 -420z
m720 0 l0 -300 -300 0 -300 0 0 300 0 300 300 0 300 0 0 -300z"/>
<path d="M2760 2940 l0 -180 180 0 180 0 0 180 0 180 -180 0 -180 0 0 -180z"/>
<path d="M360 2280 l0 -120 120 0 120 0 0 -60 0 -60 60 0 60 0 0 60 0 60 -60
0 -60 0 0 60 0 60 60 0 60 0 0 60 0 60 -180 0 -180 0 0 -120z"/>
<path d="M3000 2340 l0 -60 60 0 60 0 0 60 0 60 -60 0 -60 0 0 -60z"/>
<path d="M3240 2220 l0 -60 -120 0 -120 0 0 -60 0 -60 60 0 60 0 0 -120 0
-120 60 0 60 0 0 -60 0 -60 -120 0 -120 0 0 120 0 120 -60 0 -60 0 0 -120 0
-120 60 0 60 0 0 -60 0 -60 60 0 60 0 0 -60 0 -60 60 0 60 0 0 60 0 60 60 0
60 0 0 180 0 180 -60 0 -60 0 0 60 0 60 60 0 60 0 0 120 0 120 -60 0 -60 0 0
-60z"/>
<path d="M720 1740 l0 -60 60 0 60 0 0 -60 0 -60 -60 0 -60 0 0 -60 0 -60 -60
0 -60 0 0 60 0 60 -60 0 -60 0 0 60 0 60 -60 0 -60 0 0 -60 0 -60 60 0 60 0 0
-60 0 -60 -60 0 -60 0 0 -60 0 -60 60 0 60 0 0 60 0 60 60 0 60 0 0 -60 0 -60
60 0 60 0 0 60 0 60 60 0 60 0 0 60 0 60 60 0 60 0 0 60 0 60 -60 0 -60 0 0
60 0 60 -60 0 -60 0 0 -60z"/>
<path d="M360 780 l0 -420 420 0 420 0 0 420 0 420 -420 0 -420 0 0 -420z
m720 0 l0 -300 -300 0 -300 0 0 300 0 300 300 0 300 0 0 -300z"/>
<path d="M600 780 l0 -180 180 0 180 0 0 180 0 180 -180 0 -180 0 0 -180z"/>
<path d="M3240 660 l0 -60 -60 0 -60 0 0 -120 0 -120 120 0 120 0 0 60 0 60
-60 0 -60 0 0 60 0 60 60 0 60 0 0 60 0 60 -60 0 -60 0 0 -60z"/>
</g>
</g></svg>
